<svg version="1.0" preserveAspectRatio="xMidYMid meet" viewBox="739.0987200000001 920.6549836 1900.0574399999998 511.97399088000003" zoomAndPan="magnify" xmlns:xlink="http://www.w3.org/1999/xlink" xmlns="http://www.w3.org/2000/svg" style="max-height: 500px" width="1900.0574399999998" height="511.97399088000003"><defs><g/><clipPath id="2962786a6e"><path clip-rule="nonzero" d="M 0.316406 0 L 3374.445312 0 L 3374.445312 2245 L 0.316406 2245 Z M 0.316406 0"/></clipPath></defs><g clip-path="url(#2962786a6e)"><path fill-rule="nonzero" fill-opacity="1" d="M 0.316406 0 L 3374.5625 0 L 3374.5625 2245 L 0.316406 2245 Z M 0.316406 0" fill="#ffffff"/><path fill-rule="nonzero" fill-opacity="1" d="M 0.316406 0 L 3374.5625 0 L 3374.5625 2245 L 0.316406 2245 Z M 0.316406 0" fill="#ffffff"/></g><g fill-opacity="1" fill="#000000"><g transform="translate(441.481109, 1309.58332)"><g><path d="M 319.9375 -264.4375 C 284.9375 -264.4375 260.4375 -249.453125 243.953125 -217.953125 C 232.453125 -246.953125 206.953125 -264.4375 169.96875 -264.4375 C 138.96875 -264.4375 115.96875 -251.4375 99.984375 -224.953125 L 98.984375 -257.9375 L 30 -257.9375 L 30 0 L 100.484375 0 L 100.484375 -137.96875 C 100.484375 -176.46875 118.96875 -200.953125 146.46875 -200.953125 C 170.96875 -200.953125 180.953125 -181.453125 180.953125 -158.46875 L 180.953125 0 L 251.4375 0 L 251.4375 -137.96875 C 251.4375 -176.46875 269.9375 -200.953125 297.4375 -200.953125 C 321.921875 -200.953125 331.921875 -181.453125 331.921875 -158.46875 L 331.921875 0 L 402.40625 0 L 402.40625 -172.46875 C 402.40625 -226.453125 373.421875 -264.4375 319.9375 -264.4375 Z M 319.9375 -264.4375"/></g></g></g><g fill-opacity="1" fill="#000000"><g transform="translate(873.879735, 1309.58332)"><g><path d="M 276.4375 -257.9375 L 187.953125 -257.9375 L 130.46875 -193.953125 L 98.484375 -153.96875 L 100.484375 -213.453125 L 100.484375 -355.921875 L 30 -355.921875 L 30 0 L 100.484375 0 L 100.484375 -85.484375 L 127.46875 -113.46875 L 145.46875 -80.484375 L 194.953125 0 L 278.4375 0 L 175.96875 -156.46875 Z M 276.4375 -257.9375"/></g></g></g><g fill-opacity="1" fill="#000000"><g transform="translate(1159.812695, 1309.58332)"><g/></g></g><g fill-opacity="1" fill="#000000"><g transform="translate(1284.783365, 1309.58332)"><g><path d="M 137.96875 9.5 C 207.453125 9.5 252.4375 -22 252.4375 -76.484375 C 252.4375 -116.46875 228.453125 -139.96875 176.96875 -150.46875 L 121.46875 -161.96875 C 102.984375 -165.96875 92.484375 -174.46875 92.484375 -187.953125 C 92.484375 -204.453125 107.46875 -215.453125 130.96875 -215.453125 C 157.46875 -215.453125 176.46875 -201.953125 179.953125 -179.453125 L 243.453125 -181.953125 C 236.953125 -232.453125 194.453125 -264.4375 131.96875 -264.4375 C 68.484375 -264.4375 27 -231.453125 27 -179.453125 C 27 -139.96875 51.484375 -113.96875 101.984375 -103.984375 L 152.96875 -93.984375 C 176.46875 -89.484375 186.953125 -81.984375 186.953125 -67.984375 C 186.953125 -48.484375 166.96875 -39.484375 140.46875 -39.484375 C 106.984375 -39.484375 89.484375 -53.984375 85.484375 -79.484375 L 21 -76.984375 C 27.5 -22 67.484375 9.5 137.96875 9.5 Z M 137.96875 9.5"/></g></g></g><g fill-opacity="1" fill="#000000"><g transform="translate(1554.720041, 1309.58332)"><g><path d="M 147.96875 8.5 C 225.453125 8.5 279.9375 -49.984375 279.9375 -127.96875 C 279.9375 -205.953125 225.453125 -264.4375 147.96875 -264.4375 C 70.484375 -264.4375 16 -205.953125 16 -127.96875 C 16 -49.984375 70.484375 8.5 147.96875 8.5 Z M 147.96875 -46.484375 C 108.46875 -46.484375 83.984375 -78.484375 83.984375 -127.96875 C 83.984375 -177.46875 108.46875 -209.453125 147.96875 -209.453125 C 187.453125 -209.453125 211.953125 -177.46875 211.953125 -127.96875 C 211.953125 -78.484375 187.453125 -46.484375 147.96875 -46.484375 Z M 147.96875 -46.484375"/></g></g></g><g fill-opacity="1" fill="#000000"><g transform="translate(1850.650711, 1309.58332)"><g><path d="M 139.96875 8.5 C 204.953125 8.5 248.953125 -27.5 259.4375 -88.984375 L 190.453125 -88.984375 C 182.453125 -60.984375 165.96875 -46.484375 140.96875 -46.484375 C 104.984375 -46.484375 83.984375 -75.484375 83.984375 -127.96875 C 83.984375 -180.453125 104.984375 -209.453125 140.96875 -209.453125 C 166.46875 -209.453125 182.953125 -195.953125 190.453125 -167.96875 L 259.4375 -167.96875 C 248.953125 -228.953125 205.953125 -264.4375 139.96875 -264.4375 C 63.484375 -264.4375 16 -210.953125 16 -127.96875 C 16 -44.984375 63.484375 8.5 139.96875 8.5 Z M 139.96875 8.5"/></g></g></g><g fill-opacity="1" fill="#000000"><g transform="translate(2124.086572, 1309.58332)"><g><path d="M 100.984375 -291.9375 L 100.984375 -355.921875 L 30.5 -355.921875 L 30.5 -291.9375 Z M 100.484375 0 L 100.484375 -257.9375 L 30 -257.9375 L 30 0 Z M 100.484375 0"/></g></g></g><g fill-opacity="1" fill="#000000"><g transform="translate(2254.555863, 1309.58332)"><g><path d="M 258.4375 0 C 250.9375 -13 248.453125 -30 248.453125 -53.984375 L 248.453125 -167.96875 C 248.453125 -231.453125 210.953125 -263.9375 136.96875 -263.9375 C 67.484375 -263.9375 32 -237.453125 27 -180.953125 L 91.484375 -179.953125 C 94.984375 -203.953125 108.46875 -213.953125 137.46875 -213.953125 C 165.46875 -213.953125 180.953125 -204.953125 180.953125 -185.953125 L 180.953125 -166.96875 L 90.984375 -148.96875 C 38.984375 -138.46875 12.5 -111.96875 12.5 -70.984375 C 12.5 -24 47.484375 7.5 101.984375 7.5 C 135.96875 7.5 163.96875 -5 181.453125 -26 C 182.953125 -17 184.953125 -9 186.953125 0 Z M 121.96875 -44.484375 C 95.984375 -44.484375 81.484375 -56.984375 81.484375 -75.484375 C 81.484375 -92.484375 93.484375 -103.484375 114.96875 -107.96875 L 180.953125 -121.96875 L 180.953125 -102.984375 C 180.953125 -64.984375 155.46875 -44.484375 121.96875 -44.484375 Z M 121.96875 -44.484375"/></g></g></g><g fill-opacity="1" fill="#000000"><g transform="translate(2532.990493, 1309.58332)"><g><path d="M 100.484375 0 L 100.484375 -355.921875 L 30 -355.921875 L 30 0 Z M 100.484375 0"/></g></g></g><g fill-opacity="1" fill="#000000"><g transform="translate(2663.459784, 1309.58332)"><g><path d="M 137.96875 9.5 C 207.453125 9.5 252.4375 -22 252.4375 -76.484375 C 252.4375 -116.46875 228.453125 -139.96875 176.96875 -150.46875 L 121.46875 -161.96875 C 102.984375 -165.96875 92.484375 -174.46875 92.484375 -187.953125 C 92.484375 -204.453125 107.46875 -215.453125 130.96875 -215.453125 C 157.46875 -215.453125 176.46875 -201.953125 179.953125 -179.453125 L 243.453125 -181.953125 C 236.953125 -232.453125 194.453125 -264.4375 131.96875 -264.4375 C 68.484375 -264.4375 27 -231.453125 27 -179.453125 C 27 -139.96875 51.484375 -113.96875 101.984375 -103.984375 L 152.96875 -93.984375 C 176.46875 -89.484375 186.953125 -81.984375 186.953125 -67.984375 C 186.953125 -48.484375 166.96875 -39.484375 140.46875 -39.484375 C 106.984375 -39.484375 89.484375 -53.984375 85.484375 -79.484375 L 21 -76.984375 C 27.5 -22 67.484375 9.5 137.96875 9.5 Z M 137.96875 9.5"/></g></g></g></svg>