<svg xmlns="http://www.w3.org/2000/svg" xmlns:xlink="http://www.w3.org/1999/xlink" width="1080" zoomAndPan="magnify" viewBox="0 0 810 404.99999" height="540" preserveAspectRatio="xMidYMid meet" version="1.0"><defs><clipPath id="8e3830ce5d"><path d="M 0 123.640625 L 810 123.640625 L 810 281.140625 L 0 281.140625 Z M 0 123.640625 " clip-rule="nonzero"/></clipPath></defs><rect x="-81" width="972" fill="#ffffff" y="-40.499999" height="485.999988" fill-opacity="1"/><rect x="-81" width="972" fill="#ffffff" y="-40.499999" height="485.999988" fill-opacity="1"/><g clip-path="url(#8e3830ce5d)"><rect x="-81" width="972" fill="#ffffff" y="-40.499999" height="485.999988" fill-opacity="1"/><rect x="-81" width="972" fill="#ffffff" y="-40.499999" height="485.999988" fill-opacity="1"/></g><path fill="#000000" d="M 124.230469 164.285156 C 113.554688 164.285156 106.078125 168.859375 101.046875 178.476562 C 97.539062 169.625 89.757812 164.285156 78.472656 164.285156 C 69.015625 164.285156 61.996094 168.253906 57.121094 176.339844 L 56.816406 166.269531 L 35.765625 166.269531 L 35.765625 245 L 57.273438 245 L 57.273438 202.886719 C 57.273438 191.136719 62.914062 183.664062 71.304688 183.664062 C 78.777344 183.664062 81.824219 189.617188 81.824219 196.628906 L 81.824219 245 L 103.332031 245 L 103.332031 202.886719 C 103.332031 191.136719 108.976562 183.664062 117.367188 183.664062 C 124.835938 183.664062 127.890625 189.617188 127.890625 196.628906 L 127.890625 245 L 149.394531 245 L 149.394531 192.359375 C 149.394531 175.878906 140.550781 164.285156 124.230469 164.285156 Z M 124.230469 164.285156 " fill-opacity="1" fill-rule="nonzero"/><path fill="#000000" d="M 242.894531 166.269531 L 215.894531 166.269531 L 198.355469 185.800781 L 188.597656 198.003906 L 189.207031 179.847656 L 189.207031 136.363281 L 167.699219 136.363281 L 167.699219 245 L 189.207031 245 L 189.207031 218.90625 L 197.441406 210.367188 L 202.933594 220.433594 L 218.03125 245 L 243.503906 245 L 212.238281 197.242188 Z M 242.894531 166.269531 " fill-opacity="1" fill-rule="nonzero"/><path fill="#000000" d="M 326.019531 247.898438 C 347.222656 247.898438 360.945312 238.285156 360.945312 221.652344 C 360.945312 209.449219 353.628906 202.277344 337.917969 199.074219 L 320.984375 195.5625 C 315.34375 194.339844 312.140625 191.746094 312.140625 187.632812 C 312.140625 182.59375 316.714844 179.238281 323.882812 179.238281 C 331.96875 179.238281 337.765625 183.359375 338.828125 190.226562 L 358.207031 189.460938 C 356.222656 174.050781 343.253906 164.285156 324.1875 164.285156 C 304.820312 164.285156 292.160156 174.355469 292.160156 190.226562 C 292.160156 202.277344 299.632812 210.214844 315.039062 213.261719 L 330.597656 216.3125 C 337.765625 217.6875 340.964844 219.976562 340.964844 224.25 C 340.964844 230.199219 334.867188 232.949219 326.78125 232.949219 C 316.566406 232.949219 311.226562 228.523438 310.003906 220.738281 L 290.328125 221.5 C 292.3125 238.285156 304.511719 247.898438 326.019531 247.898438 Z M 326.019531 247.898438 " fill-opacity="1" fill-rule="nonzero"/><path fill="#000000" d="M 411.433594 247.59375 C 435.078125 247.59375 451.699219 229.742188 451.699219 205.941406 C 451.699219 182.136719 435.078125 164.285156 411.433594 164.285156 C 387.792969 164.285156 371.167969 182.136719 371.167969 205.941406 C 371.167969 229.742188 387.792969 247.59375 411.433594 247.59375 Z M 411.433594 230.8125 C 399.382812 230.8125 391.910156 221.042969 391.910156 205.941406 C 391.910156 190.832031 399.382812 181.070312 411.433594 181.070312 C 423.480469 181.070312 430.957031 190.832031 430.957031 205.941406 C 430.957031 221.042969 423.480469 230.8125 411.433594 230.8125 Z M 411.433594 230.8125 " fill-opacity="1" fill-rule="nonzero"/><path fill="#000000" d="M 499.289062 247.59375 C 519.117188 247.59375 532.542969 236.605469 535.742188 217.839844 L 514.691406 217.839844 C 512.25 226.386719 507.222656 230.8125 499.59375 230.8125 C 488.613281 230.8125 482.207031 221.960938 482.207031 205.941406 C 482.207031 189.921875 488.613281 181.070312 499.59375 181.070312 C 507.375 181.070312 512.402344 185.191406 514.691406 193.730469 L 535.742188 193.730469 C 532.542969 175.117188 519.421875 164.285156 499.289062 164.285156 C 475.953125 164.285156 461.460938 180.609375 461.460938 205.941406 C 461.460938 231.269531 475.953125 247.59375 499.289062 247.59375 Z M 499.289062 247.59375 " fill-opacity="1" fill-rule="nonzero"/><path fill="#000000" d="M 570.824219 155.894531 L 570.824219 136.363281 L 549.320312 136.363281 L 549.320312 155.894531 Z M 570.671875 245 L 570.671875 166.269531 L 549.167969 166.269531 L 549.167969 245 Z M 570.671875 245 " fill-opacity="1" fill-rule="nonzero"/><path fill="#000000" d="M 658.675781 245 C 656.386719 241.03125 655.628906 235.84375 655.628906 228.523438 L 655.628906 193.730469 C 655.628906 174.355469 644.1875 164.4375 621.613281 164.4375 C 600.414062 164.4375 589.585938 172.523438 588.058594 189.769531 L 607.734375 190.074219 C 608.804688 182.746094 612.917969 179.695312 621.765625 179.695312 C 630.308594 179.695312 635.035156 182.441406 635.035156 188.242188 L 635.035156 194.035156 L 607.582031 199.53125 C 591.714844 202.734375 583.636719 210.824219 583.636719 223.332031 C 583.636719 237.671875 594.308594 247.289062 610.9375 247.289062 C 621.308594 247.289062 629.851562 243.472656 635.1875 237.0625 C 635.644531 239.808594 636.253906 242.253906 636.863281 245 Z M 617.035156 231.421875 C 609.109375 231.421875 604.683594 227.605469 604.683594 221.960938 C 604.683594 216.769531 608.34375 213.414062 614.902344 212.042969 L 635.035156 207.769531 L 635.035156 213.566406 C 635.035156 225.164062 627.257812 231.421875 617.035156 231.421875 Z M 617.035156 231.421875 " fill-opacity="1" fill-rule="nonzero"/><path fill="#000000" d="M 695.4375 245 L 695.4375 136.363281 L 673.929688 136.363281 L 673.929688 245 Z M 695.4375 245 " fill-opacity="1" fill-rule="nonzero"/><path fill="#000000" d="M 746.683594 247.898438 C 767.886719 247.898438 781.609375 238.285156 781.609375 221.652344 C 781.609375 209.449219 774.292969 202.277344 758.585938 199.074219 L 741.648438 195.5625 C 736.011719 194.339844 732.804688 191.746094 732.804688 187.632812 C 732.804688 182.59375 737.378906 179.238281 744.546875 179.238281 C 752.632812 179.238281 758.429688 183.359375 759.496094 190.226562 L 778.871094 189.460938 C 776.886719 174.050781 763.917969 164.285156 744.855469 164.285156 C 725.484375 164.285156 712.824219 174.355469 712.824219 190.226562 C 712.824219 202.277344 720.296875 210.214844 735.703125 213.261719 L 751.261719 216.3125 C 758.429688 217.6875 761.628906 219.976562 761.628906 224.25 C 761.628906 230.199219 755.53125 232.949219 747.445312 232.949219 C 737.230469 232.949219 731.890625 228.523438 730.671875 220.738281 L 710.996094 221.5 C 712.976562 238.285156 725.179688 247.898438 746.683594 247.898438 Z M 746.683594 247.898438 " fill-opacity="1" fill-rule="nonzero"/></svg>