<?xml version="1.0" standalone="no"?>
<!DOCTYPE svg PUBLIC "-//W3C//DTD SVG 20010904//EN"
 "http://www.w3.org/TR/2001/REC-SVG-20010904/DTD/svg10.dtd">
<svg version="1.0" xmlns="http://www.w3.org/2000/svg"
 width="800.000000pt" height="105.000000pt" viewBox="0 0 800.000000 105.000000"
 preserveAspectRatio="xMidYMid meet">

<g transform="translate(0.000000,105.000000) scale(0.100000,-0.100000)"
fill="#000000" stroke="none">
<path d="M679 1003 c-35 -25 -68 -49 -73 -54 -5 -5 2 -25 18 -48 33 -47 43
-23 -115 -269 l-119 -183 26 -39 26 -39 80 126 c44 70 102 160 131 201 47 68
52 73 64 55 8 -10 62 -99 120 -199 l106 -181 77 55 77 55 -74 114 c-41 63
-121 191 -177 284 l-103 168 -64 -46z"/>
<path d="M2980 999 c-78 -57 -76 -53 -46 -99 l27 -41 -32 -52 c-18 -29 -77
-121 -132 -204 l-99 -153 22 -35 c12 -19 25 -35 30 -35 4 0 21 21 36 47 40 70
214 332 224 338 7 4 92 -134 214 -347 l28 -47 74 56 c41 30 74 58 74 61 0 3
-40 66 -89 141 -48 75 -125 198 -171 274 -46 75 -88 137 -94 137 -6 -1 -36
-19 -66 -41z"/>
<path d="M3492 979 c-61 -60 -62 -62 -47 -85 12 -19 15 -65 15 -269 0 -135 3
-245 6 -245 4 0 22 9 40 21 l34 21 0 174 c0 96 3 174 8 174 4 0 47 -56 96
-124 l90 -124 95 134 96 135 5 -196 5 -197 73 -1 c41 0 77 4 84 11 8 8 11 104
12 311 l1 301 -51 0 -50 0 -98 -140 c-53 -77 -101 -142 -106 -145 -5 -3 -61
65 -126 150 -64 85 -117 155 -118 155 -1 0 -29 -28 -64 -61z"/>
<path d="M7469 999 c-30 -22 -61 -44 -69 -49 -13 -7 -12 -11 3 -27 15 -18 17
-47 17 -281 0 -144 2 -262 5 -262 3 0 24 9 45 20 l40 20 0 186 c0 118 4 183
10 179 5 -3 87 -98 181 -211 l172 -205 63 62 64 63 -20 21 c-19 20 -20 36 -20
273 l0 252 -45 -22 -45 -22 0 -175 -1 -176 -72 77 c-40 43 -115 131 -167 197
-52 66 -98 120 -101 120 -3 1 -30 -17 -60 -40z"/>
<path d="M1393 1014 c-102 -35 -143 -139 -143 -361 0 -157 -26 -203 -117 -203
-41 0 -42 -1 -32 -24 21 -45 138 -50 220 -9 94 48 119 107 119 280 0 129 13
201 41 232 18 19 31 21 118 21 l98 0 7 -50 c4 -28 6 -147 6 -266 -1 -129 2
-220 8 -227 7 -8 40 -12 93 -11 l82 2 -2 215 c-1 118 1 242 5 276 l7 61 63 0
c61 0 64 1 79 31 9 17 15 32 13 34 -2 2 -144 5 -317 7 -225 2 -324 0 -348 -8z"/>
<path d="M5093 1011 c-138 -47 -213 -155 -213 -304 2 -191 120 -317 298 -317
l75 0 72 -74 71 -73 50 46 c27 25 60 53 73 62 l24 15 -50 32 c-28 18 -58 41
-67 51 -17 19 -16 21 22 55 22 20 50 60 62 88 31 73 26 200 -13 274 -32 64
-103 127 -164 148 -62 21 -175 20 -240 -3z m105 -55 c78 -41 133 -140 140
-252 6 -95 -11 -162 -54 -213 l-35 -41 -38 20 c-46 23 -87 69 -115 130 -17 36
-21 65 -21 150 0 110 10 145 58 198 24 26 29 27 65 8z"/>
<path d="M14 1008 c-5 -7 -8 -142 -9 -301 0 -217 3 -291 12 -299 7 -6 51 -11
98 -12 81 -1 86 0 81 19 -3 11 -8 62 -12 113 l-7 92 44 0 c63 0 157 26 202 56
64 42 95 145 66 221 -17 46 -69 92 -123 108 -64 19 -341 21 -352 3z m247 -59
c75 -38 101 -156 49 -222 -22 -28 -78 -57 -109 -57 -20 0 -21 4 -21 150 0 144
1 150 20 150 12 0 39 -9 61 -21z"/>
<path d="M2123 1008 c-14 -17 -15 -596 -1 -604 5 -4 47 -7 93 -8 l84 -1 -6
128 -6 127 26 0 c24 0 58 -40 216 -259 l17 -25 45 40 c24 22 56 49 71 60 l26
20 -84 93 c-46 51 -84 97 -84 101 0 5 8 11 18 14 10 4 32 20 47 36 25 26 30
40 33 98 3 57 0 72 -20 101 -12 19 -45 46 -73 60 -46 24 -60 26 -220 29 -134
3 -174 1 -182 -10z m252 -58 c22 -11 48 -33 58 -49 21 -36 22 -102 1 -142 -17
-34 -82 -68 -128 -69 -28 0 -28 1 -22 38 3 20 6 83 6 140 0 98 1 102 22 102
12 0 40 -9 63 -20z"/>
<path d="M4264 1008 c-4 -6 -8 -147 -8 -312 l-1 -301 80 1 c45 0 86 4 93 8 9
5 12 85 12 312 l0 304 -84 0 c-55 0 -87 -4 -92 -12z"/>
<path d="M5640 1005 c-13 -12 -14 -52 -10 -257 4 -217 7 -247 25 -283 44 -89
158 -99 297 -26 l78 40 0 -42 0 -42 72 1 c116 3 105 -27 105 307 0 179 -3 297
-10 305 -6 8 -37 12 -88 12 l-79 0 0 -244 0 -244 -45 -18 c-52 -19 -117 -15
-145 11 -33 30 -43 115 -38 313 l5 182 -76 0 c-54 0 -81 -4 -91 -15z"/>
<path d="M6363 1008 c-4 -7 -8 -145 -8 -305 -1 -253 1 -293 15 -298 27 -11
420 -11 420 0 -1 6 -7 21 -15 35 -13 24 -16 25 -127 25 l-113 0 -3 130 -3 130
53 -53 c30 -28 57 -52 61 -52 13 0 117 85 117 95 -1 6 -23 34 -50 64 l-49 54
-63 -47 -63 -47 -3 97 c-1 54 0 104 3 112 5 12 23 14 104 9 l98 -6 16 35 17
34 -200 0 c-148 0 -201 -3 -207 -12z"/>
<path d="M6884 1008 c-14 -22 -11 -588 3 -600 7 -5 100 -10 221 -11 l210 -2
-18 35 -18 35 -114 0 -113 0 -3 130 -2 130 56 -56 56 -57 64 51 63 50 -52 58
c-28 33 -53 59 -55 59 -2 0 -32 -21 -66 -46 l-61 -46 -3 98 c-1 53 0 104 3
112 5 12 23 14 104 9 l98 -6 16 35 17 34 -200 0 c-146 0 -201 -3 -206 -12z"/>
<path d="M636 568 l-57 -63 57 -52 c49 -43 60 -50 74 -40 32 23 100 87 100 95
0 4 -26 34 -59 66 l-58 57 -57 -63z"/>
<path d="M2948 573 c-32 -32 -58 -62 -58 -66 0 -7 69 -72 100 -94 14 -10 25
-3 73 40 l58 52 -58 63 -58 63 -57 -58z"/>
<path d="M6489 191 c-20 -16 -25 -31 -29 -88 -4 -61 -7 -68 -27 -71 -36 -5
-27 -22 12 -22 53 0 75 28 75 94 0 54 20 93 41 81 5 -4 9 -2 9 3 0 11 -24 22
-45 22 -7 0 -23 -9 -36 -19z"/>
<path d="M6584 201 c-2 -2 -4 -46 -4 -98 l0 -93 30 0 30 0 0 98 0 97 -26 0
c-14 0 -28 -2 -30 -4z"/>
<path d="M6708 199 c-15 -8 -18 -25 -18 -99 0 -72 3 -90 15 -90 10 0 15 16 17
62 l3 62 54 -67 c52 -63 56 -66 71 -50 12 14 15 36 12 106 -4 91 -22 114 -22
26 0 -27 -3 -49 -7 -49 -5 0 -30 24 -58 54 -41 46 -53 54 -67 45z"/>
<path d="M6953 196 c-39 -18 -53 -43 -53 -96 0 -55 34 -90 87 -90 27 0 42 6
51 20 11 18 10 20 -17 20 -16 0 -37 7 -45 16 -43 43 -21 114 35 114 20 0 29 4
27 13 -6 17 -48 19 -85 3z"/>
<path d="M7083 197 c-3 -4 -5 -47 -5 -95 l0 -87 66 -3 c41 -2 66 1 66 8 0 5
-18 10 -40 10 l-40 0 0 42 c0 41 0 41 20 23 19 -18 22 -18 37 -2 16 16 16 18
1 33 -12 13 -20 14 -37 5 -19 -11 -21 -9 -21 19 0 28 3 30 35 30 21 0 35 5 35
13 0 14 -108 18 -117 4z"/>
<path d="M7363 194 c-31 -13 -45 -34 -23 -34 6 0 10 -32 10 -75 l0 -75 28 0
27 0 0 100 c0 55 -2 100 -5 99 -3 0 -20 -7 -37 -15z"/>
<path d="M7490 203 c-34 -13 -50 -37 -50 -75 0 -35 3 -40 37 -54 20 -9 44 -13
55 -11 10 3 18 2 18 -2 0 -17 -26 -31 -57 -31 -18 0 -33 -4 -33 -10 0 -5 21
-10 46 -10 109 0 159 140 67 188 -23 12 -57 14 -83 5z m54 -35 c23 -32 21 -78
-2 -78 -27 0 -42 20 -42 55 0 50 19 59 44 23z"/>
<path d="M7864 194 c-44 -21 -69 -71 -60 -117 8 -45 38 -67 92 -67 110 0 126
129 16 133 -23 1 -42 5 -42 9 0 15 51 40 71 35 13 -3 19 -1 16 6 -6 18 -58 19
-93 1z m48 -91 c20 -18 23 -36 8 -63 -13 -24 -34 -17 -49 16 -25 56 -1 85 41
47z"/>
<path d="M7650 186 c0 -7 -3 -27 -6 -43 -5 -27 -3 -30 27 -39 17 -5 37 -17 43
-27 15 -25 -18 -50 -58 -43 -24 5 -27 4 -16 -9 21 -25 102 -20 128 8 12 13 22
30 22 38 0 26 -46 60 -89 66 -32 4 -41 10 -39 22 2 12 17 17 56 19 72 4 66 22
-8 22 -44 0 -60 -4 -60 -14z"/>
</g>
</svg>
